HIERARCHY
ROOT Hips
{
	OFFSET 0.000000 0.000000 0.000000
	CHANNELS 6 Xposition Yposition Zposition Zrotation Yrotation Xrotation 
	JOINT LowerBack
	{
		OFFSET 0.000000 0.000000 0.000000
		CHANNELS 3 Zrotation Yrotation Xrotation
		JOINT Spine
		{
			OFFSET 0.028270 2.035590 -0.193380
			CHANNELS 3 Zrotation Yrotation Xrotation
			JOINT Spine1
			{
				OFFSET 0.056720 2.048850 -0.042750
				CHANNELS 3 Zrotation Yrotation Xrotation
				JOINT Neck
				{
					OFFSET 0.000000 0.000000 0.000000
					CHANNELS 3 Zrotation Yrotation Xrotation
					JOINT Neck1
					{
						OFFSET -0.054170 1.746240 0.172020
						CHANNELS 3 Zrotation Yrotation Xrotation
						JOINT Head
						{
							OFFSET 0.104070 1.761360 -0.123970
							CHANNELS 3 Zrotation Yrotation Xrotation
							End Site
							{
								OFFSET 0.000000 0.000000 0.000000
							}
						}
					}
				}
				JOINT LeftShoulder
				{
					OFFSET 0.000000 0.000000 0.000000
					CHANNELS 3 Zrotation Yrotation Xrotation
					JOINT LeftArm
					{
						OFFSET 3.362410 1.200890 -0.311210
						CHANNELS 3 Zrotation Yrotation Xrotation
						JOINT LeftForeArm
						{
							OFFSET 4.983000 -0.000000 -0.000000
							CHANNELS 3 Zrotation Yrotation Xrotation
							JOINT LeftHand
							{
								OFFSET 3.483560 -0.000000 -0.000000
								CHANNELS 3 Zrotation Yrotation Xrotation
								JOINT LeftFingerBase
								{
									OFFSET 0.000000 0.000000 0.000000
									CHANNELS 3 Zrotation Yrotation Xrotation
									JOINT LeftHandIndex1
									{
										OFFSET 0.715260 -0.000000 -0.000000
										CHANNELS 3 Zrotation Yrotation Xrotation
										End Site
										{
											OFFSET 0.000000 0.000000 0.000000
										}
									}
								}
								JOINT LThumb
								{
									OFFSET 0.000000 0.000000 0.000000
									CHANNELS 3 Zrotation Yrotation Xrotation
									End Site
									{
										OFFSET 0.000000 0.000000 0.000000
									}
								}
							}
						}
					}
				}
				JOINT RightShoulder
				{
					OFFSET 0.000000 0.000000 0.000000
					CHANNELS 3 Zrotation Yrotation Xrotation
					JOINT RightArm
					{
						OFFSET -3.136600 1.374050 -0.404650
						CHANNELS 3 Zrotation Yrotation Xrotation
						JOINT RightForeArm
						{
							OFFSET -5.241900 -0.000000 -0.000000
							CHANNELS 3 Zrotation Yrotation Xrotation
							JOINT RightHand
							{
								OFFSET -3.444170 -0.000000 -0.000000
								CHANNELS 3 Zrotation Yrotation Xrotation
								JOINT RightFingerBase
								{
									OFFSET 0.000000 0.000000 0.000000
									CHANNELS 3 Zrotation Yrotation Xrotation
									JOINT RightHandIndex1
									{
										OFFSET -0.622530 -0.000000 -0.000000
										CHANNELS 3 Zrotation Yrotation Xrotation
										End Site
										{
											OFFSET 0.000000 0.000000 0.000000
										}
									}
								}
								JOINT RThumb
								{
									OFFSET 0.000000 0.000000 0.000000
									CHANNELS 3 Zrotation Yrotation Xrotation
									End Site
									{
										OFFSET 0.000000 0.000000 0.000000
									}
								}
							}
						}
					}
				}
			}
		}
	}
}
}
MOTION
Frames: 14
Frame Time: 0.008333
2.416150 17.436659 0.449518 5.005926 84.387806 23.126052 0.885979 -1.301484 -5.394257 -0.685397 -1.628450 -4.124646 -7.010019 -1.806574 -0.107371 9.288856 -1.133341 -4.300434 -4.427463 -0.367043 0.875623 0.000000 0.000000 0.000000 -4.311044 1.689336 2.613506 -66.190625 -4.352416 8.216049 -3.617574 -11.787694 -0.006663 4.546149 2.190787 0.086694 -0.081774 0.052064 0.000000 0.000000 0.000000 0.000000 0.000000 0.000000 0.000000 18.099954 0.912971 0.966702 72.482811 17.281358 7.256626 3.078414 18.690826 0.009613 -1.043189 7.991906 -0.078770 0.076719 -0.127702 -0.000000 0.000000 0.000000 0.000000 0.000000 0.000000 0.000000 
2.669191 17.433380 0.493873 7.703215 84.083029 25.743634 0.309715 -1.163471 -5.329114 -0.803153 -1.435060 -4.133323 -6.965690 -1.615783 -0.188604 9.250249 -1.158262 -4.283254 -4.412469 -0.366949 0.878661 0.000000 0.000000 0.000000 -4.310884 1.900282 2.666019 -66.146041 -2.857750 7.640765 -3.700116 -10.700068 -0.006392 4.128031 2.522874 0.091355 -0.083204 0.045043 0.000000 0.000000 0.000000 0.000000 0.000000 0.000000 0.000000 18.036292 1.196519 0.857531 73.553124 18.639429 10.682770 2.941033 20.931116 0.009242 -0.825913 7.964186 -0.062828 0.071269 -0.137694 -0.000000 0.000000 0.000000 0.000000 0.000000 0.000000 0.000000 
2.922878 17.421449 0.534188 8.727566 83.698895 26.695725 -0.114089 -0.987453 -5.257395 -0.893701 -1.217680 -4.145418 -6.921458 -1.399787 -0.282705 9.185237 -1.160118 -4.260739 -4.394281 -0.366685 0.883793 0.000000 0.000000 0.000000 -4.367489 2.139247 2.719992 -66.032181 -1.322723 7.241171 -3.780014 -9.822720 -0.006200 3.687856 2.828441 0.092118 -0.085092 0.037905 0.000000 0.000000 0.000000 0.000000 0.000000 0.000000 0.000000 17.922455 1.529712 0.750747 74.486556 20.018764 14.003787 2.805491 23.235168 0.008885 -0.649982 7.933042 -0.049886 0.066275 -0.149318 0.000000 0.000000 0.000000 0.000000 0.000000 0.000000 0.000000 
3.177637 17.400931 0.570238 8.432038 83.253010 26.341531 -0.392163 -0.780198 -5.186944 -0.958432 -0.982361 -4.159826 -6.877823 -1.164233 -0.379566 9.099266 -1.163607 -4.240602 -4.373912 -0.366272 0.889054 0.000000 0.000000 0.000000 -4.476331 2.415542 2.771719 -65.864105 0.240531 7.015447 -3.854507 -9.143391 -0.006076 3.246638 3.096839 0.089381 -0.087222 0.030503 0.000000 0.000000 0.000000 0.000000 0.000000 0.000000 0.000000 17.772360 1.880345 0.646554 75.282666 21.470990 17.246980 2.675941 25.549675 0.008571 -0.527689 7.922965 -0.040843 0.062048 -0.162381 0.000000 0.000000 0.000000 0.000000 0.000000 0.000000 0.000000 
3.433635 17.372007 0.602185 7.159165 82.762653 25.025368 -0.531803 -0.550542 -5.121714 -0.998566 -0.737123 -4.176825 -6.835390 -0.917137 -0.478205 8.996285 -1.155867 -4.218402 -4.351678 -0.365767 0.895644 0.000000 0.000000 0.000000 -4.627029 2.726029 2.822303 -65.656309 1.831528 6.945129 -3.921649 -8.646858 -0.006011 2.827173 3.319138 0.084044 -0.089398 0.022807 0.000000 0.000000 0.000000 0.000000 0.000000 0.000000 0.000000 17.589305 2.254835 0.544981 75.954801 22.995331 20.366122 2.554078 27.848666 0.008308 -0.448492 7.947028 -0.035200 0.058531 -0.176710 0.000000 0.000000 0.000000 0.000000 0.000000 0.000000 0.000000 
3.691135 17.334939 0.630476 5.188052 82.241848 23.028914 -0.541937 -0.306922 -5.064935 -1.015603 -0.489513 -4.196328 -6.794822 -0.666102 -0.577001 8.881270 -1.129052 -4.191609 -4.327760 -0.365195 0.904193 0.000000 0.000000 0.000000 -4.805492 3.067171 2.872520 -65.423304 3.446081 7.002753 -3.979794 -8.312561 -0.005981 2.452743 3.488653 0.077309 -0.091437 0.014830 0.000000 0.000000 0.000000 0.000000 0.000000 0.000000 0.000000 17.378533 2.654786 0.445890 76.518150 24.588676 23.338813 2.440396 30.112348 0.008087 -0.405336 8.010964 -0.032156 0.055680 -0.192069 0.000000 0.000000 0.000000 0.000000 0.000000 0.000000 0.000000 
3.950130 17.290148 0.655736 2.765160 81.701603 20.596179 -0.437460 -0.057758 -5.014703 -1.011896 -0.246422 -4.217168 -6.756091 -0.418144 -0.674146 8.758739 -1.073752 -4.158813 -4.301877 -0.364521 0.914902 0.000000 0.000000 0.000000 -4.995309 3.441675 2.923634 -65.177749 5.065540 7.161566 -4.028215 -8.107380 -0.005956 2.143369 3.600888 0.070275 -0.093217 0.006674 0.000000 0.000000 0.000000 0.000000 0.000000 0.000000 0.000000 17.143175 3.083961 0.348156 76.989578 26.241750 26.144941 2.334209 32.326976 0.007898 -0.388451 8.114931 -0.031210 0.053362 -0.208200 0.000000 0.000000 0.000000 0.000000 0.000000 0.000000 0.000000 
4.210989 17.238128 0.678543 0.045275 81.149072 17.888526 -0.230146 0.191693 -4.979486 -0.989227 -0.012284 -4.240489 -6.719462 -0.177993 -0.768867 8.632599 -0.992384 -4.118690 -4.274163 -0.363777 0.928188 0.000000 0.000000 0.000000 -5.183330 3.832063 2.975424 -64.932158 6.698155 7.366938 -4.066548 -8.012139 -0.005897 1.913978 3.656483 0.064142 -0.094610 -0.001623 -0.000000 0.000000 0.000000 0.000000 0.000000 0.000000 0.000000 16.889081 3.534767 0.252918 77.381765 27.946939 28.794483 2.234957 34.480860 0.007720 -0.394545 8.250657 -0.032065 0.051568 -0.224774 0.000000 0.000000 0.000000 0.000000 0.000000 0.000000 0.000000 
4.473649 17.179549 0.699551 -2.805981 80.592089 15.062810 0.058770 0.435614 -4.952196 -0.950627 0.209216 -4.264146 -6.683629 0.050421 -0.859160 8.504630 -0.879169 -4.071948 -4.243661 -0.362848 0.943628 0.000000 0.000000 0.000000 -5.354947 4.244750 3.029038 -64.696989 8.311777 7.590394 -4.095856 -7.980030 -0.005776 1.772468 3.657956 0.059810 -0.095617 -0.009844 -0.000000 0.000000 0.000000 0.000000 0.000000 0.000000 0.000000 16.614101 4.009081 0.158307 77.710658 29.688612 31.274257 2.141152 36.567605 0.007551 -0.409758 8.407756 -0.033719 0.050057 -0.241476 -0.000000 0.000000 0.000000 0.000000 0.000000 0.000000 0.000000 
4.738208 17.115160 0.719243 -5.662334 80.036022 12.234660 0.408263 0.670956 -4.926749 -0.899235 0.417042 -4.288244 -6.648108 0.265544 -0.950956 8.374890 -0.730919 -4.011940 -4.209957 -0.361778 0.963035 0.000000 0.000000 0.000000 -5.504089 4.639485 3.086050 -64.481598 9.933588 7.755262 -4.118605 -7.998053 -0.005570 1.718811 3.615094 0.057582 -0.096267 -0.017903 -0.000000 0.000000 0.000000 0.000000 0.000000 0.000000 0.000000 16.316569 4.506353 0.066989 77.985494 31.442845 33.575055 2.051740 38.583928 0.007393 -0.419748 8.570119 -0.035077 0.048571 -0.258013 -0.000000 0.000000 0.000000 0.000000 0.000000 0.000000 0.000000 
5.004402 17.045801 0.737925 -8.405323 79.487216 9.495454 0.794149 0.893918 -4.877777 -0.838087 0.610514 -4.305122 -6.608634 0.466821 -1.033423 8.240026 -0.557135 -3.951137 -4.170647 -0.360187 0.982532 0.000000 0.000000 0.000000 -5.617656 5.068429 3.146097 -64.293764 11.461619 7.883487 -4.136389 -7.979045 -0.005271 1.746658 3.531522 0.057157 -0.096707 -0.025374 -0.000000 0.000000 0.000000 0.000000 0.000000 0.000000 0.000000 15.984086 5.015455 -0.028151 78.227773 33.210537 35.703107 1.966164 40.514064 0.007276 -0.408609 8.735406 -0.034739 0.046816 -0.274025 -0.000000 0.000000 0.000000 0.000000 0.000000 0.000000 0.000000 
5.272571 16.972438 0.755840 -10.950058 78.949682 6.914698 1.195167 1.104519 -4.797838 -0.770622 0.791868 -4.315015 -6.564520 0.655971 -1.112935 8.097821 -0.362159 -3.883936 -4.125389 -0.358132 1.003743 0.000000 0.000000 0.000000 -5.697721 5.488381 3.209591 -64.137909 12.928633 7.901457 -4.152692 -7.914702 -0.004889 1.843490 3.420900 0.058434 -0.097058 -0.032199 -0.000000 0.000000 0.000000 0.000000 0.000000 0.000000 0.000000 15.612982 5.529989 -0.124460 78.441894 34.964277 37.652835 1.884165 42.358897 0.007234 -0.359267 8.886510 -0.031209 0.044468 -0.289217 -0.000000 0.000000 0.000000 0.000000 0.000000 0.000000 0.000000 
5.542792 16.896169 0.773154 -13.183155 78.433555 4.578915 1.582119 1.301018 -4.668013 -0.701751 0.962788 -4.315919 -6.514474 0.834250 -1.195328 7.945085 -0.149782 -3.806519 -4.073371 -0.355599 1.027632 0.000000 0.000000 0.000000 -5.750291 5.867615 3.277335 -64.013539 14.347631 7.759529 -4.171613 -7.789218 -0.004452 1.993228 3.297851 0.060813 -0.097504 -0.038253 -0.000000 0.000000 0.000000 0.000000 0.000000 0.000000 0.000000 15.197003 6.043938 -0.220908 78.634156 36.677446 39.410289 1.805751 44.115051 0.007321 -0.251155 9.014745 -0.022689 0.041099 -0.303374 -0.000000 0.000000 0.000000 0.000000 0.000000 0.000000 0.000000 
5.815020 16.818138 0.790211 -14.972779 77.957871 2.591462 1.915182 1.477920 -4.464976 -0.638087 1.122401 -4.300208 -6.454539 1.000920 -1.266727 7.781794 0.055376 -3.735713 -4.013437 -0.352274 1.049120 0.000000 0.000000 0.000000 -5.763235 6.264454 3.347770 -63.917311 15.606715 7.502261 -4.194337 -7.518654 -0.003994 2.182187 3.167483 0.063796 -0.098226 -0.043127 -0.000000 0.000000 0.000000 0.000000 0.000000 0.000000 0.000000 14.734546 6.531037 -0.325383 78.823159 38.356045 40.996527 1.731685 45.763737 0.007592 -0.073623 9.129161 -0.007882 0.036464 -0.316247 -0.000000 0.000000 0.000000 0.000000 0.000000 0.000000 0.000000 
